<svg width="16" height="16" viewBox="0 0 16 16" fill="none" xmlns="http://www.w3.org/2000/svg">
<path d="M8 0C3.58169 0 0 3.58169 0 8C0 12.4183 3.58169 16 8 16C12.4183 16 16 12.4183 16 8C16 3.58169 12.4183 0 8 0Z" fill="#40B3E0"/>
<path d="M11.8927 4.60181L10.4637 11.8061C10.4637 11.8061 10.2639 12.3057 9.71434 12.0659L6.41697 9.53793L5.21797 8.95843L3.19959 8.27893C3.19959 8.27893 2.88984 8.16906 2.85984 7.92924C2.82984 7.68943 3.20959 7.55956 3.20959 7.55956L11.2331 4.41206C11.2331 4.41206 11.8926 4.12231 11.8926 4.60194" fill="white"/>
<path d="M6.16364 11.7252C6.16364 11.7252 6.06739 11.7162 5.94739 11.3365C5.82758 10.9568 5.21802 8.95842 5.21802 8.95842L10.0641 5.88092C10.0641 5.88092 10.344 5.71104 10.334 5.88092C10.334 5.88092 10.3839 5.91092 10.234 6.05079C10.0841 6.19073 6.42708 9.47804 6.42708 9.47804" fill="#D2E5F1"/>
<path d="M7.68126 10.5072L6.37707 11.6964C6.37707 11.6964 6.27507 11.7737 6.16357 11.7252L6.41332 9.51648" fill="#B5CFE4"/>
</svg>
