<svg width="18" height="20" viewBox="0 0 18 20" fill="none" xmlns="http://www.w3.org/2000/svg">
<path d="M16.5 2H13.5V0.5H12V2H6V0.5H4.5V2H1.5C1.1023 2.0004 0.720997 2.15856 0.439779 2.43978C0.15856 2.721 0.000397108 3.1023 0 3.5V18.5C0.000397108 18.8977 0.15856 19.279 0.439779 19.5602C0.720997 19.8414 1.1023 19.9996 1.5 20H16.5C16.8977 19.9996 17.279 19.8414 17.5602 19.5602C17.8414 19.279 17.9996 18.8977 18 18.5V3.5C17.9996 3.1023 17.8414 2.721 17.5602 2.43978C17.279 2.15856 16.8977 2.0004 16.5 2ZM1.5 3.5H4.5V5H6V3.5H12V5H13.5V3.5H16.5V6.5H1.5V3.5ZM1.5 8H5.25V12.5H1.5V8ZM11.25 18.5H6.75V14H11.25V18.5ZM11.25 12.5H6.75V8H11.25V12.5ZM12.75 18.5V14H16.5L16.5007 18.5H12.75Z" fill="#C5C5C5"/>
</svg>
