<svg width="219" height="229" viewBox="0 0 219 229" fill="none" xmlns="http://www.w3.org/2000/svg">
<path fill-rule="evenodd" clip-rule="evenodd" d="M72.0913 0.43055C68.2943 1.81855 66.0913 5.07855 66.0913 9.30955C66.0913 12.8135 66.6243 13.9945 69.1683 16.1355C72.5723 19.0005 74.7023 19.3146 78.6193 17.5296C81.3053 16.3055 84.0913 12.0775 84.0913 9.22455C84.0913 3.39755 77.3973 -1.50845 72.0913 0.43055ZM139.567 1.09755C136.643 2.39355 134.091 6.22555 134.091 9.32155C134.091 12.2666 137.044 16.4626 139.97 17.6746C145.943 20.1486 152.091 15.8626 152.091 9.22455C152.091 2.36055 145.852 -1.68745 139.567 1.09755ZM68.2813 27.0776C59.4973 31.9516 60.4283 46.4606 69.7753 50.3656C83.5733 56.1306 94.5683 36.3386 82.1933 28.0116C78.3653 25.4346 72.0093 25.0086 68.2813 27.0776ZM136.854 27.2896C130.789 30.5806 129.025 41.1156 133.624 46.5816C138.182 51.9976 145.194 52.8046 151.209 48.6046C160.555 42.0776 155.269 25.6576 143.856 25.7646C141.51 25.7866 138.359 26.4726 136.854 27.2896ZM67.5933 60.2996C60.9043 63.7876 58.0913 68.5046 58.0913 76.2326C58.0913 95.2166 83.8663 99.9725 90.6393 82.2385C96.0913 67.9625 80.8053 53.4116 67.5933 60.2996ZM136.591 60.1366C131.387 62.4496 126.08 70.1896 126.097 75.4426C126.132 86.9106 136.678 95.3686 147.533 92.6346C152.534 91.3755 158.555 85.7095 159.688 81.1955C160.792 76.7945 159.54 69.1636 157.166 65.8296C152.755 59.6356 143.488 57.0705 136.591 60.1366ZM32.3613 64.2076C23.4003 68.1025 22.6483 82.0785 31.1313 87.0885C36.8193 90.4495 46.2273 88.0765 49.1943 82.5325C50.9643 79.2255 50.7083 72.3155 48.7033 69.2555C46.5033 65.8985 41.3083 62.7215 38.0913 62.7676C36.7163 62.7866 34.1373 63.4346 32.3613 64.2076ZM175.162 64.4765C170.446 66.8805 167.981 70.5865 167.915 75.3695C167.803 83.4855 172.959 88.7245 181.056 88.7245C184.263 88.7245 185.883 88.0256 188.734 85.4126C191.751 82.6486 192.419 81.2846 192.775 77.1626C193.304 71.0546 190.67 66.2825 185.601 64.1646C181.132 62.2976 179.33 62.3505 175.162 64.4765ZM3.01433 69.6475C-1.99867 74.6605 -0.521668 81.9855 6.05133 84.7085C8.49533 85.7206 9.68733 85.7206 12.1313 84.7085C18.7043 81.9855 20.1813 74.6605 15.1683 69.6475C11.2383 65.7175 6.94433 65.7175 3.01433 69.6475ZM203.014 69.6475C198.058 74.6035 199.339 81.6765 205.671 84.3225C208.635 85.5605 209.547 85.5605 212.511 84.3225C218.843 81.6765 220.124 74.6035 215.168 69.6475C211.238 65.7175 206.944 65.7175 203.014 69.6475ZM69.5913 135.745C62.3103 137.995 57.6793 145.348 58.2833 153.701C58.7743 160.49 61.5533 164.9 67.1353 167.748C82.7113 175.694 98.6303 157.207 88.7873 142.602C84.8043 136.692 76.3273 133.664 69.5913 135.745ZM136.512 136.567C125.774 141.588 122.903 155.083 130.73 163.747C134.85 168.307 139.664 170.146 145.703 169.465C150.712 168.901 156.336 165.086 158.592 160.723C160.578 156.882 160.498 148.385 158.435 144.037C154.894 136.576 144.249 132.949 136.512 136.567ZM29.4483 143.037C20.0123 151.684 27.5123 167.557 39.9323 165.227C44.4973 164.371 50.0523 158.881 50.2063 155.075C50.6113 145.053 46.0713 139.725 37.1263 139.725C33.9193 139.725 32.2993 140.424 29.4483 143.037ZM172.989 142.012C166.227 146.562 165.82 156.795 172.187 162.152C176.319 165.629 179.684 166.307 184.494 164.63C194.621 161.101 196.143 146.206 186.901 141.078C183.173 139.009 176.817 139.435 172.989 142.012ZM5.42033 144.183C-0.675668 146.835 -1.84567 153.942 3.01433 158.802C6.94433 162.732 11.2383 162.732 15.1683 158.802C20.1123 153.858 18.8443 146.773 12.5433 144.14C8.56433 142.478 9.35033 142.473 5.42033 144.183ZM205.42 144.183C199.324 146.835 198.154 153.942 203.014 158.802C206.944 162.732 211.238 162.732 215.168 158.802C220.112 153.858 218.844 146.773 212.543 144.14C208.564 142.478 209.35 142.473 205.42 144.183ZM71.5913 177.423C61.7783 180.052 58.9113 192.507 66.5153 199.474C74.8753 207.136 87.4283 201.084 87.2683 189.47C87.1573 181.458 79.2403 175.373 71.5913 177.423ZM138.591 178.128C129.653 182.073 127.817 193.951 135.187 200.152C138.64 203.058 145.794 203.651 149.901 201.372C158.581 196.555 157.766 181.994 148.601 178.165C144.409 176.413 142.491 176.406 138.591 178.128ZM72.0913 210.431C63.7923 213.465 64.0573 225.105 72.4943 228.103C77.2193 229.783 84.0913 224.522 84.0913 219.225C84.0913 213.398 77.3973 208.492 72.0913 210.431ZM139.201 211.121C136.543 212.594 134.181 216.273 134.126 219.025C134.065 222.168 136.897 226.402 139.89 227.642C149.315 231.546 156.81 219.331 149.175 212.509C145.777 209.472 142.898 209.072 139.201 211.121Z" fill="white"/>
</svg>
